<svg width="160" height="60" viewBox="0 0 160 60" fill="none" xmlns="http://www.w3.org/2000/svg">
<rect width="160" height="60" />
<path d="M14.312 43V22.632H18.112L18.53 27.952H18.188C18.3906 26.1787 18.8973 24.8487 19.708 23.962C20.544 23.0753 21.76 22.632 23.356 22.632H27.916V26.85H23.736C22.7733 26.85 21.9753 27.0147 21.342 27.344C20.7086 27.6733 20.24 28.1673 19.936 28.826C19.632 29.4847 19.48 30.308 19.48 31.296V43H14.312ZM9.44795 43V38.896H25.674V43H9.44795ZM9.44795 26.736V22.632H17.39V26.736H9.44795ZM39.3771 43.456C37.4518 43.456 35.7671 43.0253 34.3231 42.164C32.8791 41.2773 31.7518 40.036 30.9411 38.44C30.1304 36.844 29.7251 34.9693 29.7251 32.816C29.7251 30.6373 30.1304 28.7627 30.9411 27.192C31.7518 25.596 32.8791 24.3673 34.3231 23.506C35.7671 22.6193 37.4518 22.176 39.3771 22.176C41.3024 22.176 42.9871 22.6193 44.4311 23.506C45.8751 24.3673 47.0024 25.596 47.8131 27.192C48.6238 28.7627 49.0291 30.6373 49.0291 32.816C49.0291 34.9693 48.6238 36.844 47.8131 38.44C47.0024 40.036 45.8751 41.2773 44.4311 42.164C42.9871 43.0253 41.3024 43.456 39.3771 43.456ZM39.3771 38.896C40.7451 38.896 41.7964 38.3767 42.5311 37.338C43.2911 36.274 43.6711 34.7667 43.6711 32.816C43.6711 30.84 43.2911 29.3327 42.5311 28.294C41.7964 27.2553 40.7451 26.736 39.3771 26.736C38.0091 26.736 36.9451 27.2553 36.1851 28.294C35.4504 29.3327 35.0831 30.84 35.0831 32.816C35.0831 34.7667 35.4504 36.274 36.1851 37.338C36.9451 38.3767 38.0091 38.896 39.3771 38.896ZM62.8843 43.456C61.4149 43.456 60.1736 43.114 59.1603 42.43C58.1469 41.746 57.3743 40.8593 56.8423 39.77L56.6903 43H51.7503V16.02H56.9183V25.52C57.4249 24.532 58.1849 23.734 59.1983 23.126C60.2369 22.4927 61.4656 22.176 62.8843 22.176C64.5056 22.176 65.9243 22.594 67.1403 23.43C68.3563 24.266 69.2936 25.482 69.9523 27.078C70.6363 28.6487 70.9783 30.5613 70.9783 32.816C70.9783 35.0707 70.6363 36.996 69.9523 38.592C69.2936 40.1627 68.3563 41.366 67.1403 42.202C65.9243 43.038 64.5056 43.456 62.8843 43.456ZM61.4023 38.896C62.7956 38.896 63.8469 38.3767 64.5563 37.338C65.2656 36.274 65.6203 34.7667 65.6203 32.816C65.6203 30.84 65.2656 29.3327 64.5563 28.294C63.8469 27.2553 62.7956 26.736 61.4023 26.736C60.5156 26.736 59.7303 26.964 59.0463 27.42C58.3623 27.876 57.8303 28.56 57.4503 29.472C57.0956 30.384 56.9183 31.4987 56.9183 32.816C56.9183 34.108 57.0956 35.21 57.4503 36.122C57.8303 37.034 58.3496 37.7307 59.0083 38.212C59.6923 38.668 60.4903 38.896 61.4023 38.896ZM82.0594 43.456C80.1594 43.456 78.4747 43.0253 77.0054 42.164C75.5614 41.2773 74.4214 40.036 73.5854 38.44C72.7747 36.844 72.3694 34.9693 72.3694 32.816C72.3694 30.7133 72.7747 28.864 73.5854 27.268C74.3961 25.672 75.5234 24.4307 76.9674 23.544C78.4114 22.632 80.0834 22.176 81.9834 22.176C83.8581 22.176 85.5047 22.6193 86.9234 23.506C88.3674 24.3927 89.4948 25.6467 90.3054 27.268C91.1161 28.864 91.5214 30.7513 91.5214 32.93V34.222H77.6894C77.8161 35.742 78.2721 36.9073 79.0574 37.718C79.8681 38.5033 80.9067 38.896 82.1734 38.896C83.1107 38.896 83.9087 38.6807 84.5674 38.25C85.2261 37.794 85.6821 37.186 85.9354 36.426L91.1034 36.768C90.4194 38.896 89.3048 40.5427 87.7594 41.708C86.2394 42.8733 84.3394 43.456 82.0594 43.456ZM77.7654 30.688H86.0114C85.8848 29.3707 85.4541 28.3827 84.7194 27.724C83.9847 27.0653 83.0601 26.736 81.9454 26.736C80.7801 26.736 79.8301 27.078 79.0954 27.762C78.3861 28.4207 77.9427 29.396 77.7654 30.688ZM99.3726 43V22.632H103.173L103.591 27.952H103.249C103.451 26.1787 103.958 24.8487 104.769 23.962C105.605 23.0753 106.821 22.632 108.417 22.632H112.977V26.85H108.797C107.834 26.85 107.036 27.0147 106.403 27.344C105.769 27.6733 105.301 28.1673 104.997 28.826C104.693 29.4847 104.541 30.308 104.541 31.296V43H99.3726ZM94.5086 43V38.896H110.735V43H94.5086ZM94.5086 26.736V22.632H102.451V26.736H94.5086ZM125.312 43C123.032 43 121.347 42.4807 120.258 41.442C119.194 40.4033 118.662 38.7947 118.662 36.616V17.844H123.83V36.122C123.83 37.0593 124.045 37.756 124.476 38.212C124.932 38.668 125.628 38.896 126.566 38.896H131.354V43H125.312ZM112.81 26.736V22.632H131.354V26.736H112.81ZM141.903 43.456C139.978 43.456 138.293 43.0253 136.849 42.164C135.405 41.2773 134.278 40.036 133.467 38.44C132.656 36.844 132.251 34.9693 132.251 32.816C132.251 30.6373 132.656 28.7627 133.467 27.192C134.278 25.596 135.405 24.3673 136.849 23.506C138.293 22.6193 139.978 22.176 141.903 22.176C143.828 22.176 145.513 22.6193 146.957 23.506C148.401 24.3673 149.528 25.596 150.339 27.192C151.15 28.7627 151.555 30.6373 151.555 32.816C151.555 34.9693 151.15 36.844 150.339 38.44C149.528 40.036 148.401 41.2773 146.957 42.164C145.513 43.0253 143.828 43.456 141.903 43.456ZM141.903 38.896C143.271 38.896 144.322 38.3767 145.057 37.338C145.817 36.274 146.197 34.7667 146.197 32.816C146.197 30.84 145.817 29.3327 145.057 28.294C144.322 27.2553 143.271 26.736 141.903 26.736C140.535 26.736 139.471 27.2553 138.711 28.294C137.976 29.3327 137.609 30.84 137.609 32.816C137.609 34.7667 137.976 36.274 138.711 37.338C139.471 38.3767 140.535 38.896 141.903 38.896Z" fill="#203A61"/>
</svg>
