<svg width="160" height="60" viewBox="0 0 160 60" fill="none" xmlns="http://www.w3.org/2000/svg">
<path d="M16.2792 41V39.12L18.4792 38.68C18.5059 37.6933 18.5192 36.64 18.5192 35.52C18.5192 34.4 18.5192 33.4267 18.5192 32.6V30.24C18.5192 29.4933 18.5059 28.88 18.4792 28.4C18.4792 27.92 18.4659 27.48 18.4392 27.08C18.4392 26.6533 18.4259 26.1733 18.3992 25.64L15.9592 25.28V23.72L23.8392 21.04L24.5592 21.48L24.9192 26.2C25.4792 24.4933 26.2659 23.2133 27.2792 22.36C28.2926 21.48 29.2926 21.04 30.2792 21.04C31.1592 21.04 31.9192 21.2933 32.5592 21.8C33.1992 22.28 33.5992 23.0133 33.7592 24C33.7326 25.04 33.4526 25.8533 32.9192 26.44C32.3859 27 31.7192 27.28 30.9192 27.28C29.7992 27.28 28.7726 26.6533 27.8392 25.4L27.5992 25.08C27.0126 25.64 26.4659 26.3467 25.9592 27.2C25.4792 28.0533 25.1326 28.9467 24.9192 29.88V32.6C24.9192 33.4267 24.9192 34.3733 24.9192 35.44C24.9192 36.5067 24.9326 37.5067 24.9592 38.44L28.1192 39.12V41H16.2792ZM42.4489 41.6C40.3689 41.6 38.5689 41.1733 37.0489 40.32C35.5289 39.44 34.3556 38.2267 33.5289 36.68C32.7022 35.1067 32.2889 33.2933 32.2889 31.24C32.2889 29.1867 32.7289 27.4 33.6089 25.88C34.5156 24.36 35.7422 23.1733 37.2889 22.32C38.8356 21.4667 40.5556 21.04 42.4489 21.04C44.3422 21.04 46.0489 21.4533 47.5689 22.28C49.1156 23.1067 50.3422 24.2933 51.2489 25.84C52.1556 27.36 52.6089 29.16 52.6089 31.24C52.6089 33.32 52.1956 35.1333 51.3689 36.68C50.5422 38.2267 49.3689 39.44 47.8489 40.32C46.3289 41.1733 44.5289 41.6 42.4489 41.6ZM42.4489 39.52C43.5689 39.52 44.4089 38.8667 44.9689 37.56C45.5289 36.2533 45.8089 34.1867 45.8089 31.36C45.8089 28.5067 45.5289 26.4267 44.9689 25.12C44.4089 23.8133 43.5689 23.16 42.4489 23.16C41.3022 23.16 40.4489 23.8133 39.8889 25.12C39.3289 26.4267 39.0489 28.5067 39.0489 31.36C39.0489 34.1867 39.3289 36.2533 39.8889 37.56C40.4489 38.8667 41.3022 39.52 42.4489 39.52ZM52.7889 41.04V39.16L54.9089 38.72C54.9356 37.76 54.9489 36.72 54.9489 35.6C54.9489 34.4533 54.9489 33.4667 54.9489 32.64V15.76L52.4689 15.44V13.76L60.7489 11.96L61.3889 12.36L61.2289 17.96V23.6C62.9089 21.8933 64.8422 21.04 67.0289 21.04C68.4956 21.04 69.8156 21.4267 70.9889 22.2C72.1622 22.9467 73.0956 24.08 73.7889 25.6C74.5089 27.0933 74.8689 28.9467 74.8689 31.16C74.8689 33.32 74.4689 35.1867 73.6689 36.76C72.8689 38.3067 71.8156 39.5067 70.5089 40.36C69.2289 41.1867 67.8289 41.6 66.3089 41.6C64.1222 41.6 62.3622 40.8133 61.0289 39.24L60.3489 41.56L52.7889 41.04ZM64.1089 24.52C63.6022 24.52 63.1222 24.6267 62.6689 24.84C62.2156 25.0533 61.7756 25.3333 61.3489 25.68V37.12C62.1756 37.8667 63.0822 38.24 64.0689 38.24C65.2422 38.24 66.2022 37.6667 66.9489 36.52C67.7222 35.3733 68.1089 33.6267 68.1089 31.28C68.1089 28.9067 67.7356 27.1867 66.9889 26.12C66.2689 25.0533 65.3089 24.52 64.1089 24.52ZM85.3564 23.12C84.6097 23.12 83.9164 23.5867 83.2764 24.52C82.6631 25.4267 82.3164 27.1067 82.2364 29.56H85.6364C86.5964 29.56 87.2364 29.3733 87.5564 29C87.9031 28.6 88.0764 27.9467 88.0764 27.04C88.0764 25.7067 87.8097 24.72 87.2764 24.08C86.7431 23.44 86.1031 23.12 85.3564 23.12ZM85.4364 41.6C83.4897 41.6 81.7697 41.2 80.2764 40.4C78.7831 39.5733 77.6097 38.4 76.7564 36.88C75.9031 35.3333 75.4764 33.4933 75.4764 31.36C75.4764 29.12 75.9697 27.24 76.9564 25.72C77.9697 24.1733 79.2631 23.0133 80.8364 22.24C82.4097 21.44 84.0497 21.04 85.7564 21.04C87.5164 21.04 89.0097 21.4133 90.2364 22.16C91.4897 22.9067 92.4364 23.92 93.0764 25.2C93.7164 26.4533 94.0364 27.8933 94.0364 29.52C94.0364 30.2933 93.9564 31 93.7964 31.64H82.2364C82.3697 33.7467 82.9431 35.3067 83.9564 36.32C84.9964 37.3067 86.2097 37.8 87.5964 37.8C88.6897 37.8 89.6231 37.6 90.3964 37.2C91.1697 36.7733 91.8497 36.2533 92.4364 35.64L93.8364 36.92C93.0097 38.4933 91.8897 39.6667 90.4764 40.44C89.0631 41.2133 87.3831 41.6 85.4364 41.6ZM94.2558 41V39.12L96.4558 38.68C96.4824 37.6933 96.4958 36.64 96.4958 35.52C96.4958 34.4 96.4958 33.4267 96.4958 32.6V30.24C96.4958 29.4933 96.4824 28.88 96.4558 28.4C96.4558 27.92 96.4424 27.48 96.4158 27.08C96.4158 26.6533 96.4024 26.1733 96.3758 25.64L93.9358 25.28V23.72L101.816 21.04L102.536 21.48L102.896 26.2C103.456 24.4933 104.242 23.2133 105.256 22.36C106.269 21.48 107.269 21.04 108.256 21.04C109.136 21.04 109.896 21.2933 110.536 21.8C111.176 22.28 111.576 23.0133 111.736 24C111.709 25.04 111.429 25.8533 110.896 26.44C110.362 27 109.696 27.28 108.896 27.28C107.776 27.28 106.749 26.6533 105.816 25.4L105.576 25.08C104.989 25.64 104.442 26.3467 103.936 27.2C103.456 28.0533 103.109 28.9467 102.896 29.88V32.6C102.896 33.4267 102.896 34.3733 102.896 35.44C102.896 36.5067 102.909 37.5067 102.936 38.44L106.096 39.12V41H94.2558ZM118.724 41.6C116.937 41.6 115.537 41.1733 114.524 40.32C113.511 39.44 113.004 38.0133 113.004 36.04C113.004 35.3467 113.004 34.7067 113.004 34.12C113.031 33.5067 113.044 32.8133 113.044 32.04V24.4H110.444V22.04L113.404 21.64L115.404 16.04H119.484L119.404 21.68H123.604V24.4H119.404V35.6C119.404 36.5333 119.591 37.2267 119.964 37.68C120.364 38.1067 120.857 38.32 121.444 38.32C122.137 38.32 122.857 38.0267 123.604 37.44L124.604 38.4C124.071 39.4133 123.324 40.2 122.364 40.76C121.431 41.32 120.217 41.6 118.724 41.6ZM133.504 41.6C131.424 41.6 129.624 41.1733 128.104 40.32C126.584 39.44 125.41 38.2267 124.584 36.68C123.757 35.1067 123.344 33.2933 123.344 31.24C123.344 29.1867 123.784 27.4 124.664 25.88C125.57 24.36 126.797 23.1733 128.344 22.32C129.89 21.4667 131.61 21.04 133.504 21.04C135.397 21.04 137.104 21.4533 138.624 22.28C140.17 23.1067 141.397 24.2933 142.304 25.84C143.21 27.36 143.664 29.16 143.664 31.24C143.664 33.32 143.25 35.1333 142.424 36.68C141.597 38.2267 140.424 39.44 138.904 40.32C137.384 41.1733 135.584 41.6 133.504 41.6ZM133.504 39.52C134.624 39.52 135.464 38.8667 136.024 37.56C136.584 36.2533 136.864 34.1867 136.864 31.36C136.864 28.5067 136.584 26.4267 136.024 25.12C135.464 23.8133 134.624 23.16 133.504 23.16C132.357 23.16 131.504 23.8133 130.944 25.12C130.384 26.4267 130.104 28.5067 130.104 31.36C130.104 34.1867 130.384 36.2533 130.944 37.56C131.504 38.8667 132.357 39.52 133.504 39.52Z" fill="#203a61"/>
</svg>
